<?xml version="1.0" encoding="utf-8"?>
<!-- Generator: Adobe Illustrator 25.2.0, SVG Export Plug-In . SVG Version: 6.00 Build 0)  -->
<svg version="1.1" id="Capa_1" xmlns="http://www.w3.org/2000/svg" xmlns:xlink="http://www.w3.org/1999/xlink" x="0px" y="0px"
	 viewBox="0 0 512 512" style="enable-background:new 0 0 512 512;" xml:space="preserve">
<style type="text/css">
	.st0{fill:#FFFFFF;stroke:#FFFFFF;stroke-miterlimit:10;}
</style>
<path class="st0" d="M447,468h-25V352.4c9.7-3.2,16.7-12.3,16.7-23c0-13.3-10.9-24.2-24.2-24.2h-45L348,161.9
	c-5.9-41.3-42.3-76.2-84.5-78.9V60.3l49.2-36.7c4.6-3.4,6.4-9.2,4.6-14.6s-6.7-9-12.4-9H256c-4.1,0-7.5,3.4-7.5,7.5v75.6
	c-4.8,0.4-9.6,1.1-14.3,2.3c-4,1-6.5,5-5.5,9s5,6.5,9,5.5c6-1.4,12.1-2.2,18.3-2.2c18.7,0,36.7,6.7,50.9,18.9H205.1
	c3.1-2.7,6.5-5.1,10-7.3c3.5-2.2,4.6-6.8,2.5-10.3c-2.2-3.5-6.8-4.6-10.3-2.5c-23.4,14.4-39.2,38.3-43.3,65.4l-21.5,143.3h-45
	c-13.3,0-24.2,10.9-24.2,24.2c0,10.7,7,19.8,16.7,23V468H65c-6.3,0-11.5,5.2-11.5,11.5v10c0,12.4,8.6,22.5,19.3,22.5h366.5
	c10.6,0,19.3-10.1,19.3-22.5v-10C458.5,473.2,453.4,468,447,468L447,468z M263.5,15h35.6l-35.6,26.5V15z M333.3,165l4.3,28.9h-13.2
	c-4.1,0-7.5,3.4-7.5,7.5s3.4,7.5,7.5,7.5h15.4l7.8,51.8h-12.9c-4.1,0-7.5,3.4-7.5,7.5s3.4,7.5,7.5,7.5h15.2l4.4,29.4h-44.6l-4-37.4
	l0,0L294.6,165H333.3L333.3,165z M284.3,209.2l5.6,51.8h-67.7l5.6-51.8H284.3z M229.3,194.2l3.1-29.2h47.1l3.1,29.2H229.3z
	 M291.5,276l3.1,29.2h-77.3l3.1-29.2H291.5z M191.7,131.6h128.6c3.9,5.7,7,11.9,9.3,18.4h-43.4l0,0h-60.5l0,0h-43.4
	C184.6,143.5,187.8,137.3,191.7,131.6L191.7,131.6z M162.1,275.8h15.2c4.1,0,7.5-3.4,7.5-7.5s-3.4-7.5-7.5-7.5h-12.9l7.8-51.8h15.2
	c4.1,0,7.5-3.4,7.5-7.5s-3.4-7.5-7.5-7.5h-12.9l4.3-28.9h38.6l-11.1,102.7l0,0l-4,37.4h-44.6L162.1,275.8z M88.3,329.4
	c0-5.1,4.1-9.2,9.2-9.2h317.1c5.1,0,9.2,4.1,9.2,9.2s-4.1,9.2-9.2,9.2h-89c-4.1,0-7.5,3.4-7.5,7.5s3.4,7.5,7.5,7.5h7.8V468h-33.3
	v-77.4c0-10.3-8.4-18.6-18.6-18.6h-50.6c-10.3,0-18.6,8.4-18.6,18.6V468H179V353.6h116.7c4.1,0,7.5-3.4,7.5-7.5s-3.4-7.5-7.5-7.5
	h-198C92.4,338.6,88.3,334.5,88.3,329.4z M407,353.6V468h-18.4V353.6H407z M348.2,438.8v-18.4h25.4v18.4H348.2z M373.6,453.8V468
	h-25.4v-14.2H373.6z M348.2,405.4V387h25.4v18.4H348.2z M348.2,372v-18.4h25.4V372H348.2z M284.9,390.6V468H227v-77.4
	c0-2,1.6-3.6,3.6-3.6h50.6C283.3,387,284.9,388.6,284.9,390.6L284.9,390.6z M138.4,438.8v-18.4h25.4v18.4H138.4z M163.8,453.8V468
	h-25.4v-14.2H163.8z M138.4,405.4V387h25.4v18.4H138.4z M138.4,372v-18.4h25.4V372H138.4z M123.4,353.6V468H105V353.6H123.4z
	 M443.5,489.5c0,4.6-2.5,7.5-4.3,7.5H72.7c-1.7,0-4.3-2.9-4.3-7.5V483h375.1V489.5z"/>
</svg>
